<svg width="24" height="24" viewBox="0 0 24 24" fill="none" xmlns="http://www.w3.org/2000/svg">
<path fill-rule="evenodd" clip-rule="evenodd" d="M19.4405 4.55151C18.4697 3.58029 17.3165 2.81067 16.0471 2.28696C14.7777 1.76324 13.4172 1.49577 12.0441 1.49995C6.28125 1.49995 1.59 6.16776 1.58766 11.9062C1.58511 13.7334 2.06676 15.5287 2.98359 17.1093L1.5 22.5L7.04297 21.0529C8.57729 21.8841 10.2948 22.3192 12.0398 22.3185H12.0441C17.8064 22.3185 22.4972 17.6503 22.5 11.9123C22.5035 10.5438 22.2348 9.18829 21.7095 7.92461C21.1843 6.66093 20.413 5.51433 19.4405 4.55151V4.55151ZM12.0441 20.5621H12.0403C10.4847 20.5626 8.95739 20.1463 7.61719 19.3565L7.29984 19.169L4.01062 20.0278L4.88859 16.836L4.68187 16.5079C3.81206 15.1308 3.35121 13.535 3.35297 11.9062C3.35297 7.13761 7.25344 3.25776 12.0473 3.25776C14.347 3.25366 16.5542 4.16317 18.1833 5.78626C19.8125 7.40934 20.7302 9.61308 20.7347 11.9128C20.7328 16.6818 16.8342 20.5621 12.0441 20.5621ZM16.8108 14.0845C16.5497 13.9542 15.2639 13.3251 15.0258 13.2384C14.7877 13.1517 14.6119 13.1081 14.438 13.3687C14.2641 13.6293 13.763 14.2125 13.6106 14.3882C13.4583 14.564 13.3059 14.5832 13.0448 14.4529C12.7838 14.3226 11.9414 14.0484 10.9434 13.1624C10.1667 12.4729 9.64266 11.6217 9.49031 11.3615C9.33797 11.1014 9.47391 10.9603 9.60469 10.8309C9.72234 10.7142 9.86578 10.5271 9.99656 10.3753C10.1273 10.2234 10.1709 10.1146 10.2577 9.9412C10.3444 9.76776 10.3012 9.61589 10.2361 9.48604C10.1709 9.3562 9.64828 8.07604 9.43078 7.55526C9.21844 7.04807 9.00328 7.11698 8.84297 7.10901C8.69062 7.10151 8.51484 7.09964 8.34188 7.09964C8.20965 7.10308 8.07955 7.13374 7.9597 7.18972C7.83985 7.24569 7.73283 7.32577 7.64531 7.42495C7.40578 7.68557 6.73078 8.31557 6.73078 9.59432C6.73078 10.8731 7.66828 12.1106 7.79766 12.284C7.92703 12.4574 9.63984 15.0839 12.2606 16.2103C12.7473 16.4187 13.2445 16.6014 13.7503 16.7578C14.3761 16.9556 14.9456 16.9279 15.3956 16.8609C15.8977 16.7864 16.9425 16.2318 17.1595 15.6243C17.3766 15.0168 17.377 14.4965 17.3119 14.3882C17.2467 14.28 17.0723 14.2143 16.8108 14.0845Z" fill="#25D366"/>
</svg>
